<svg width="21" height="17" viewBox="0 0 21 17" fill="none" xmlns="http://www.w3.org/2000/svg">
<path d="M20.3832 2.15599C19.6197 2.49368 18.8101 2.71546 17.9812 2.81399C18.8549 2.29142 19.5089 1.469 19.8212 0.499988C19.0012 0.987988 18.1022 1.32999 17.1652 1.51499C16.5358 0.841567 15.7015 0.394951 14.7921 0.244572C13.8827 0.0941939 12.9491 0.248479 12.1364 0.683441C11.3238 1.1184 10.6776 1.80967 10.2983 2.64978C9.91902 3.48989 9.82793 4.43177 10.0392 5.32899C8.37629 5.24564 6.74952 4.81351 5.26447 4.06065C3.77943 3.30779 2.46931 2.25104 1.41918 0.958988C1.04747 1.59744 0.852138 2.32321 0.853183 3.06199C0.853183 4.51199 1.59118 5.79299 2.71318 6.54299C2.04919 6.52208 1.39982 6.34277 0.819183 6.01999V6.07199C0.819384 7.03769 1.15355 7.9736 1.76503 8.72105C2.37651 9.46849 3.22766 9.98146 4.17418 10.173C3.5578 10.34 2.91149 10.3646 2.28418 10.245C2.55105 11.0762 3.07119 11.8032 3.77178 12.3241C4.47236 12.845 5.31831 13.1338 6.19118 13.15C5.32366 13.8313 4.33036 14.335 3.26806 14.6322C2.20577 14.9293 1.09531 15.0142 0.000183105 14.882C1.91188 16.1114 4.13728 16.7641 6.41018 16.762C14.1032 16.762 18.3102 10.389 18.3102 4.86199C18.3102 4.68199 18.3052 4.49999 18.2972 4.32199C19.116 3.73016 19.8228 2.99701 20.3842 2.15699L20.3832 2.15599Z" fill="#607B96"/>
</svg>
